<svg width="130" height="152" viewBox="0 0 130 152" version="1.1" xmlns="http://www.w3.org/2000/svg" xmlns:xlink="http://www.w3.org/1999/xlink">
<title>Group</title>
<desc>Created using Figma</desc>
<g id="Canvas" transform="translate(4621 -1707)">
<g id="Group">
<g id="Group">
<g id="Vector">
<use xlink:href="#path0_fill" transform="translate(-4621 1707)" fill="#FFFFFF"/>
</g>
<g id="Group">
<g id="Vector">
<use xlink:href="#path1_fill" transform="translate(-4615.53 1710.63)" fill="#845B2A"/>
</g>
<g id="Vector">
<use xlink:href="#path2_fill" transform="translate(-4609.91 1788.61)" fill="#845B2A"/>
</g>
<g id="Vector">
<use xlink:href="#path3_fill" transform="translate(-4510.96 1755.51)" fill="#845B2A"/>
</g>
<g id="Vector">
<use xlink:href="#path4_fill" transform="translate(-4617.48 1731.06)" fill="#845B2A"/>
</g>
<g id="Vector">
<use xlink:href="#path5_fill" transform="translate(-4588.04 1744.53)" fill="#845B2A"/>
</g>
<g id="Group">
<g id="Vector">
<use xlink:href="#path6_fill" transform="translate(-4542.96 1758.64)" fill="#FFFFFF"/>
</g>
<g id="Vector">
<use xlink:href="#path7_fill" transform="translate(-4530.38 1758.64)" fill="#FFFFFF"/>
</g>
</g>
<g id="Vector">
<use xlink:href="#path8_fill" transform="translate(-4534.14 1759.46)" fill="#FFFFFF"/>
</g>
<g id="Vector">
<use xlink:href="#path9_fill" transform="translate(-4546.58 1759.46)" fill="#FFFFFF"/>
</g>
<g id="Group">
<g id="Vector">
<use xlink:href="#path10_fill" transform="translate(-4593.66 1724.52)" fill="#845B2A"/>
</g>
<g id="Vector">
<use xlink:href="#path11_fill" transform="translate(-4587.17 1715.39)" fill="#845B2A"/>
</g>
</g>
</g>
</g>
</g>
</g>
<defs>
<path id="path0_fill" d="M 122.898 62.8971L 130 42.4992L 114.755 42.4992C 114.419 41.8695 112.61 38.5266 112.259 37.9843C 114.755 34.2354 115.763 30.4347 115.258 26.6547C 114.554 21.4093 111.077 17.822 108.855 16.032C 104.355 4.30534 87.3098 -0.738576 72.5426 0.0867645C 58.974 0.846908 51.5258 5.16772 51.5258 5.16772C 38.3596 7.41555 24.4999 16.5714 21.482 20.8596L 21.3631 20.7277C 9.43711 26.6992 2.19831 44.5351 2.9008 54.3444C -2.04338 62.7697 0.341829 71.8781 2.65575 78.2822C 1.97702 84.3278 4.1142 89.963 7.69498 93.3444C 8.0737 99.7293 11.5297 105.419 17.0145 108.486C 17.0145 108.486 24.1939 111.743 27.2237 113.004C 65.9306 129.05 76.5511 137.01 77.1972 141.232C 77.8566 145.513 70.1886 147.217 70.1886 147.217C 74.3026 150.85 80.6829 151.478 83.0058 151.478C 94.3615 151.478 105.633 143.349 109.204 132.447C 111.535 125.319 110.191 118.97 108.169 114.848L 121.144 114.848C 121.144 114.848 122.668 98.3157 121.803 93.0243C 121.834 92.9947 121.863 92.9635 121.897 92.9354C 128.268 87.847 128.261 70.4615 128.256 70.1563L 122.898 62.8971Z"/>
<path id="path1_fill" d="M 103.425 47.4526C 103.425 47.4526 101.02 47.4629 101.095 47.4629C 101.147 47.4629 96.4579 51.7823 93.5693 54.4983L 93.5693 53.8049C 96.1832 50.7673 99.8947 46.6287 99.8947 46.6287L 99.6927 44.8817L 68.5454 45.2314L 67.2176 50.5969L 66.8567 43.4903L 117.986 43.354L 117.136 53.753L 120.585 41.69L 107.007 41.6974C 106.878 41.041 106.383 39.94 105.017 37.6952C 104.704 37.1795 103.911 35.9437 102.853 34.3701C 110.778 24.7979 105.117 17.6662 100.815 14.6345C 96.2634 -0.670589 64.1656 -2.08419 53.1009 1.8973C 78.6535 -0.765421 92.8385 15.4762 90.1221 22.6746C 95.7391 27.1865 102.779 37.8878 104.567 41.6989L 65.0671 41.7167L 65.5928 60.901L 91.5643 60.3602C 91.5643 60.3602 97.6119 63.5356 99.0719 64.0601C 98.5387 62.9518 95.9975 59.234 94.3891 57.0455C 97.0936 54.079 100.233 51.0488 101.715 49.6885L 103.233 49.6885C 104.87 51.5704 117.338 66.2102 117.338 66.2102C 116.051 67.3422 114.089 68.4847 111.394 68.4847C 107.909 68.4847 104.122 67.6001 102.206 65.6945C 102.206 65.6945 100.627 67.9483 98.4674 69.2107C 100.562 70.1309 107.71 74.1554 108.898 76.0698C 108.882 76.1972 108.864 76.3276 108.846 76.4714C 108.629 78.162 108.277 80.8811 107.554 83.1304C 107.554 83.1304 99.1922 89.0737 97.7605 89.4056C 94.1381 90.2488 82.1482 87.8498 82.1482 87.8498C 82.5863 90.2636 83.825 94.8185 86.7953 96.9671C 86.5131 96.001 86.1107 94.0732 86.326 92.5751C 90.3004 90.9378 98.1882 91.7913 98.2936 91.8417C 98.4852 91.938 108.136 84.1321 110.723 88.1699C 110.723 88.1699 111.64 90.022 111.539 96.8974L 111.365 96.9552C 111.086 94.085 110.484 91.6342 109.355 90.9615C 107.631 90.1836 106.097 90.4903 104.506 90.9793C 109.796 96.3862 111.108 103.431 110.898 106.889L 92.1866 106.259C 86.6023 102.681 80.2011 100.125 77.7758 98.9008C 75.2183 95.3238 71.9464 90.76 70.9618 86.8644C 70.1167 83.5171 70.6558 79.4038 75.3965 79.3652C 70.984 76.6818 63.3383 80.3195 64.0809 89.3642C 65.2631 103.765 80.115 117.217 78.9788 131.351C 78.2199 129.025 76.3426 126.862 73.7792 124.882C 72.1484 112.561 55.4995 95.9817 60.5848 87.0067C 50.9756 92.9737 64.7596 114.959 64.3542 119.459C 63.7972 119.124 61.0081 117.767 59.5808 117.088C 59.5437 112.272 51.1865 98.311 50.3548 86.3428C 49.7682 77.9161 54.2965 70.1872 66.6844 71.7164C 71.2128 72.275 76.8505 74.1435 80.2754 79.0096C 76.6159 70.0968 65.4592 65.7049 62.4665 65.6501C 62.6878 66.2546 62.4249 68.3661 61.7195 69.4004C 57.2283 66.8725 48.5028 67.1348 43.3507 75.0163C 37.1916 84.4388 45.9453 104.417 51.2712 109.811C 38.8402 102.322 29.5073 78.2791 40.2169 69.8064C 36.2916 70.8866 33.5856 73.4545 31.8078 76.7559C 27.0523 85.6109 27.7874 98.9926 31.4039 104.423C 21.8303 95.7402 22.8566 82.4354 26.5221 74.5184C 29.3409 69.0537 34.0712 65.0618 40.7338 63.783C 40.8303 63.8171 40.9833 63.8245 40.7724 63.7742C 33.2499 61.9457 22.2908 69.7768 21.2333 77.1974C 21.5511 67.2622 29.9914 60.9114 35.8757 60.3528C 26.7938 58.1598 13.3084 56.7847 5.30172 64.7699C -0.0330679 70.0924 -1.49003 77.15 1.60806 83.6031C 1.49964 76.7944 9.8152 70.5013 18.7382 70.202C 19.2253 70.1842 18.9491 70.2213 18.7189 70.2406C 17.6392 72.2572 16.7748 74.425 16.0738 76.6418C 13.4405 84.9559 13.7717 96.93 18.4367 104.76C 21.8719 106.599 81.9061 129.018 75.4158 141.061C 81.3046 138 85.077 131.922 85.8671 125.893C 86.7359 119.263 85.1795 113.284 83.4418 108.947C 93.2277 108.858 99.7952 118.134 97.1129 127.245C 97.2094 125.248 97.0164 123.254 96.4535 121.41C 95.898 119.565 94.9683 117.885 93.7475 116.511C 92.4168 115.01 90.0657 113.492 87.783 113.453C 89.8206 116.423 91.2286 120.742 90.3197 127.445C 88.7602 135.434 82.0264 145.803 71.8974 144.818C 83.3022 148.595 97.1753 139.663 100.78 128.657C 102.146 124.488 104.153 115.966 96.198 109.174L 113.001 109.209L 113.105 108.166C 113.487 104.394 114.49 92.75 112.838 88.5536C 113.457 88.2054 114.025 87.7727 114.521 87.2823C 115.26 86.5533 115.862 85.7175 116.364 84.8477C 117.363 83.0993 117.957 81.2115 118.464 79.3326C 119.887 74.0472 119.826 66.9925 119.826 66.9925L 103.425 47.4526ZM 98.5818 28.3349C 100.916 23.8214 101.669 19.9526 101.242 16.6482C 102.428 18.0915 103.205 19.7362 103.137 21.9885C 103.042 25.1328 101.549 27.7792 99.9362 30.1797C 99.4937 29.5647 99.0407 28.9454 98.5818 28.3349ZM 117.404 70.6658C 117.392 71.5919 117.357 72.5165 117.297 73.4382C 117.176 75.283 116.956 77.1159 116.581 78.9074C 116.202 80.6899 115.672 82.4473 114.845 84.0106C 114.222 85.193 113.394 86.2539 112.361 86.9874C 111.298 86.328 110.095 83.9528 109.594 83.1615C 110.171 81.0055 110.491 78.2198 110.688 76.7055C 110.708 76.5558 110.726 76.4151 110.744 76.2847L 117.404 69.4374C 117.406 69.8479 117.406 70.2569 117.404 70.6658Z"/>
<path id="path2_fill" d="M 6.36248 -2.08011e-06C 4.03371 7.74516 4.37679 18.5042 7.52687 24.3957C -2.17585 18.9754 -2.42684 4.21561 6.36248 -2.08011e-06Z"/>
<path id="path3_fill" d="M 4.26048e-06 1.4625L 0.270307 9.04395e-08L 11.727 0.309688C 11.727 0.309688 10.423 10.6198 10.077 12.3164C 10.077 12.3164 8.15219 10.2108 7.87891 9.9115L 7.89079 9.9115L 7.89079 3.36952L 6.03282 3.36952L 6.03282 7.90223C 3.47682 5.118 4.26048e-06 1.4625 4.26048e-06 1.4625Z"/>
<path id="path4_fill" d="M 8.06523 26.3264C 10.5188 24.7158 14.9788 22.9451 19.9363 24.7987C 18.6279 23.3437 17.4471 21.7389 16.4268 19.8897C 14.4441 16.2979 12.9678 8.86389 15.3827 4.60087C 11.0534 9.90409 10.6777 16.1868 12.7183 20.6958C 8.0578 19.7356 5.32209 22.1168 3.42551 25.9027C 2.59677 21.6648 8.63554 5.3536 19.3289 9.04395e-08C 15.9233 5.39805 21.674 13.2351 29.2336 14.3894C 23.5735 16.9484 23.7785 29.4322 29.4905 33.5322C 15.3634 29.0351 0.799701 35.1696 0.918515 47.7171L 0.804156 47.3171C -0.2028 45.0085 -1.99542 32.9321 8.06523 26.3264Z"/>
<path id="path5_fill" d="M 9.05752 0.468599C 5.95496 -0.725701 0.569682 -0.0589086 0.0290748 7.51289C -0.569455 15.8804 8.1872 23.6048 15.778 23.2892C 9.69021 21.5452 3.62619 5.92592 13.8487 5.57623L 27.8006 20.0412L 29.0437 8.28637L 31.0219 23.4596L 34.628 25.9623L 34.7319 7.8122L 9.05752 0.468599Z"/>
<path id="path6_fill" d="M 3.45157 7.89186C 1.54905 7.89186 1.3144e-06 6.12263 1.3144e-06 3.94593C 1.3144e-06 1.76774 1.54756 1.80879e-07 3.45157 1.80879e-07C 5.35409 1.80879e-07 6.90166 1.76774 6.90166 3.94593C 6.90166 6.12263 5.35409 7.89186 3.45157 7.89186ZM 3.45157 1.8522C 2.58868 1.8522 1.85648 2.8109 1.85648 3.94593C 1.85648 5.08244 2.58719 6.03818 3.45157 6.03818C 4.31595 6.03818 5.04518 5.08096 5.04518 3.94593C 5.04518 2.8109 4.31595 1.8522 3.45157 1.8522Z"/>
<path id="path7_fill" d="M 3.45008 7.89186C 1.54905 7.89186 6.79864e-07 6.12263 6.79864e-07 3.94593C 6.79864e-07 1.76774 1.54756 1.80879e-07 3.45008 1.80879e-07C 5.35409 1.80879e-07 6.90166 1.76774 6.90166 3.94593C 6.90166 6.12263 5.35409 7.89186 3.45008 7.89186ZM 3.45008 1.8522C 2.58719 1.8522 1.85648 2.8109 1.85648 3.94593C 1.85648 5.08244 2.58719 6.03818 3.45008 6.03818C 4.31446 6.03818 5.04517 5.08096 5.04517 3.94593C 5.04517 2.8109 4.31446 1.8522 3.45008 1.8522Z"/>
<path id="path8_fill" d="M 1.85648 0L -2.31154e-06 0L -2.31154e-06 6.54346L 1.85648 6.54346L 1.85648 0Z"/>
<path id="path9_fill" d="M 1.85797 0L 0 0L 0 6.54346L 1.85797 6.54346L 1.85797 0Z"/>
<path id="path10_fill" d="M 1.32087 1.46964e-07C 1.76494 15.5466 36.7648 3.72959 37.2015 24.9277C 33.2345 19.2347 20.9119 18.9428 14.7128 17.8093C 2.18673 15.5214 -2.56438 7.95261 1.32087 1.46964e-07Z"/>
<path id="path11_fill" d="M 1.0198e-06 6.67993C 0.047527 6.73624 0.0995062 6.78069 0.148517 6.83404C 1.88024 8.54844 5.17736 6.89479 9.5542 4.85885C 15.0687 2.29541 21.0674 -0.0220677 28.3982 0.000158741C 47.9745 0.0579474 58.6039 10.5014 59.5188 21.4724C 62.3808 24.3321 66.3239 29.6754 65.8977 33.8125C 63.5674 29.4398 57.8524 25.2331 49.1982 22.8237C 47.4606 11.6646 37.9123 4.60695 27.8517 3.94609C 14.3454 3.06148 7.59227 8.55585 3.50504 8.55585C 7.59227 13.5212 22.5986 5.10186 34.0434 10.0732C 42.0515 13.5509 45.6665 21.9169 35.487 32.2655C 36.1657 8.80182 6.46798 22.6415 1.0198e-06 6.67993Z"/>
</defs>
</svg>
