<svg width="9" height="17" viewBox="0 0 9 17" version="1.1" xmlns="http://www.w3.org/2000/svg" xmlns:xlink="http://www.w3.org/1999/xlink">
<title>XMLID 835</title>
<desc>Created using Figma</desc>
<g id="Canvas" transform="translate(4044 -1597)">
<g id="XMLID 835">
<use xlink:href="#path0_fill" transform="translate(-4044 1597)" fill="#FFFFFF" fill-opacity="0.5"/>
</g>
</g>
<defs>
<path id="path0_fill" d="M 0.274194 9.0542L 2.13767 9.0542L 2.13767 16.7258C 2.13767 16.8773 2.2604 17 2.41186 17L 5.57145 17C 5.72291 17 5.84564 16.8773 5.84564 16.7258L 5.84564 9.09034L 7.98786 9.09034C 8.12715 9.09034 8.24434 8.98582 8.26025 8.84746L 8.5856 6.02315C 8.59454 5.94545 8.56992 5.86763 8.51793 5.80934C 8.46589 5.75099 8.39142 5.71759 8.31327 5.71759L 5.84575 5.71759L 5.84575 3.94718C 5.84575 3.41349 6.13311 3.14286 6.69992 3.14286C 6.7807 3.14286 8.31327 3.14286 8.31327 3.14286C 8.46474 3.14286 8.58747 3.02008 8.58747 2.86867L 8.58747 0.276223C 8.58747 0.124758 8.46474 0.00202903 8.31327 0.00202903L 6.08984 0.00202903C 6.07416 0.00126129 6.03933 0 5.988 0C 5.60221 0 4.26124 0.0757322 3.20198 1.05022C 2.02832 2.1301 2.19146 3.42309 2.23045 3.64727L 2.23045 5.71754L 0.274194 5.71754C 0.122729 5.71754 1.6066e-07 5.84027 1.6066e-07 5.99173L 1.6066e-07 8.77995C 1.6066e-07 8.93142 0.122729 9.0542 0.274194 9.0542Z"/>
</defs>
</svg>
