<svg width="20" height="12" viewBox="0 0 20 12" version="1.1" xmlns="http://www.w3.org/2000/svg" xmlns:xlink="http://www.w3.org/1999/xlink">
<title>vk</title>
<desc>Created using Figma</desc>
<g id="Canvas" transform="translate(4013 -1600)">
<g id="vk">
<g id="XMLID 1">
<g id="XMLID 807">
<use xlink:href="#path0_fill" transform="translate(-4013 1600)" fill="#FFFFFF" fill-opacity="0.5"/>
</g>
</g>
</g>
</g>
<defs>
<path id="path0_fill" fill-rule="evenodd" d="M 17.2129 7.19661C 17.8763 7.84433 18.5765 8.45374 19.1715 9.16678C 19.4344 9.48364 19.6832 9.81062 19.8736 10.1783C 20.1433 10.7011 19.899 11.2763 19.4303 11.3075L 16.5166 11.3062C 15.7652 11.3686 15.1657 11.066 14.6616 10.5522C 14.2582 10.1413 13.8846 9.70404 13.4967 9.27928C 13.3377 9.10567 13.1713 8.94231 12.9724 8.81318C 12.5747 8.555 12.2294 8.63405 12.0021 9.04889C 11.7706 9.47083 11.7181 9.93804 11.6954 10.4083C 11.6642 11.0944 11.4568 11.2747 10.7676 11.3062C 9.29473 11.3756 7.89691 11.1528 6.59838 10.4098C 5.45355 9.75477 4.56579 8.83007 3.79308 7.78322C 2.28861 5.74478 1.13649 3.50486 0.101007 1.20219C -0.132072 0.683401 0.0383835 0.404915 0.610798 0.395059C 1.56132 0.376594 2.51171 0.377908 3.46334 0.393744C 3.84966 0.399396 4.10541 0.620975 4.25458 0.985938C 4.76884 2.25043 5.39809 3.45348 6.18794 4.5686C 6.39829 4.86549 6.61277 5.16237 6.9182 5.37134C 7.25609 5.60271 7.51335 5.52602 7.67231 5.14963C 7.77317 4.91096 7.81733 4.6539 7.84007 4.39828C 7.91537 3.51886 7.92529 2.64095 7.79321 1.76462C 7.71213 1.2177 7.40407 0.863648 6.85834 0.760153C 6.57985 0.707386 6.62131 0.603759 6.75615 0.444802C 6.99035 0.170653 7.21062 -8.82359e-08 7.6497 -8.82359e-08L 10.9426 -8.82359e-08C 11.461 0.102313 11.5761 0.335195 11.6471 0.856814L 11.6499 4.51452C 11.6442 4.71645 11.7508 5.31568 12.1145 5.44934C 12.4056 5.54449 12.5975 5.3116 12.7721 5.12702C 13.5605 4.29025 14.1232 3.30135 14.6259 2.27737C 14.849 1.82711 15.0408 1.35951 15.2267 0.892299C 15.3644 0.545604 15.5806 0.375016 15.9711 0.382573L 19.1403 0.385399C 19.2343 0.385399 19.3294 0.386779 19.4204 0.402353C 19.9544 0.493363 20.1007 0.723091 19.9358 1.24458C 19.6759 2.06275 19.1703 2.74458 18.6759 3.42956C 18.1473 4.16086 17.5821 4.86713 17.058 5.60277C 16.5764 6.27454 16.6147 6.61316 17.2129 7.19661Z"/>
</defs>
</svg>
