<svg width="20" height="15" viewBox="0 0 20 15" version="1.1" xmlns="http://www.w3.org/2000/svg" xmlns:xlink="http://www.w3.org/1999/xlink">
<title>XMLID 823</title>
<desc>Created using Figma</desc>
<g id="Canvas" transform="translate(4086 -1599)">
<g id="XMLID 823">
<use xlink:href="#path0_fill" transform="translate(-4086 1599)" fill="#FFFFFF" fill-opacity="0.5"/>
</g>
</g>
<defs>
<path id="path0_fill" d="M 19.2205 1.20826C 18.4985 0.350064 17.1656 0 14.6201 0L 5.37974 0C 2.77594 0 1.42045 0.372645 0.701226 1.28632C 0 2.17716 0 3.48974 0 5.30639L 0 8.7689C 0 12.2883 0.832 14.0752 5.37974 14.0752L 14.6201 14.0752C 16.8276 14.0752 18.0508 13.7663 18.8422 13.009C 19.6537 12.2323 20 10.9643 20 8.7689L 20 5.30639C 20 3.39058 19.9457 2.07026 19.2205 1.20826ZM 12.8401 7.51568L 8.64406 9.70864C 8.55026 9.75768 8.44768 9.782 8.34523 9.782C 8.22923 9.782 8.11348 9.75077 8.01097 9.68871C 7.81793 9.57174 7.70006 9.36252 7.70006 9.13684L 7.70006 4.76497C 7.70006 4.53968 7.81761 4.33064 8.01026 4.21361C 8.20297 4.09658 8.44265 4.08858 8.64258 4.19245L 12.8386 6.37129C 13.0521 6.48213 13.1861 6.70252 13.1865 6.94297C 13.1867 7.18361 13.0532 7.40432 12.8401 7.51568Z"/>
</defs>
</svg>
